<svg xmlns="http://www.w3.org/2000/svg" width="23" height="21" viewBox="0 0 21.963 19.589">
  <g id="supermarket-cart-silhouette" transform="translate(0 -2.548)">
    <g id="Group_2920" data-name="Group 2920" transform="translate(0 2.548)">
      <path id="Path_1206" data-name="Path 1206" d="M8.015,13.932a1.357,1.357,0,0,0,1.29.936h9.542a1.357,1.357,0,0,0,1.307-.994l1.76-6.348a1.356,1.356,0,0,0-1.306-1.719H6.509L5.235,4.032A3.564,3.564,0,0,0,2.341,2.548H1.005a1,1,0,1,0,0,2h1.12a1.96,1.96,0,0,1,1.6.825L5.518,7.9v7.9a2.324,2.324,0,0,0,2.324,2.324H18.593a1,1,0,1,0,0-2H8.108a.553.553,0,0,1-.553-.553V12.521Z" transform="translate(0 -2.548)" fill="#52595c"/>
      <circle id="Ellipse_729" data-name="Ellipse 729" cx="1.512" cy="1.512" r="1.512" transform="translate(6.156 16.565)" fill="#52595c"/>
      <circle id="Ellipse_730" data-name="Ellipse 730" cx="1.512" cy="1.512" r="1.512" transform="translate(15.947 16.565)" fill="#52595c"/>
    </g>
  </g>
</svg>
