<svg id="starred" xmlns="http://www.w3.org/2000/svg" width="21.479" height="21.479" viewBox="0 0 21.479 21.479">
  <path id="Path_1250" data-name="Path 1250" d="M19.62,22.518l-2.8-1.907-2.8,1.907a.671.671,0,0,1-1.028-.72l.873-3.446-2.624-2.24a.671.671,0,0,1,.4-1.18l3.343-.189,1.212-3.3a.671.671,0,0,1,1.261,0l1.212,3.3L22,14.932a.671.671,0,0,1,.4,1.18l-2.624,2.24.873,3.446a.672.672,0,0,1-1.027.72Z" transform="translate(-1.156 -1.156)" fill="#52595c"/>
  <path id="Path_1251" data-name="Path 1251" d="M20.584,7.16H20.53l-.644-4.833A2.69,2.69,0,0,0,17.228,0H4.251A2.69,2.69,0,0,0,1.593,2.327L.949,7.16H.895a.895.895,0,0,0,0,1.79H1.79V17a2.693,2.693,0,0,0,2.685,2.685h5.754l.447-1.79h-6.2A.9.9,0,0,1,3.58,17V8.95H13.764a2.459,2.459,0,0,1,3.795,0h.34v.564a.475.475,0,0,1,.072.152l.805,2.2.913.054V8.95h.895a.895.895,0,0,0,0-1.79Zm-15.608,0H2.756l.609-4.591a.9.9,0,0,1,.886-.779H5.692Zm4.868,0H6.784L7.5,1.79H9.844Zm1.79,0V1.79h2.345l.716,5.37Zm4.868,0-.716-5.37h1.441a.9.9,0,0,1,.886.779l.609,4.591Z" transform="translate(0)" fill="#52595c"/>
  <path id="Path_1252" data-name="Path 1252" d="M8.81,15.032a2.431,2.431,0,0,0,.474,2.39,1.272,1.272,0,0,1-.376.054H7.566A1.574,1.574,0,0,1,6,15.909V14.566A1.574,1.574,0,0,1,7.566,13H8.909a1.514,1.514,0,0,1,1.2.582,2.427,2.427,0,0,0-1.3,1.45Z" transform="translate(-0.63 -1.366)" fill="#52595c"/>
</svg>
